# xmcd
#
# Track frame offsets:
#	182
#	12712
#	24887
#	37232
#	47520
#	61545
#	74832
#	94472
#	108795
#	121457
#	136322
#	145557
#	162792
#	175557
#	187732
#	212882
#	224220
#	236720
#	251392
#	261525
#
# Disc length: 3676
#
# Revision: 2
# Processed by: cddbd v1.5.1PL0 Copyright (c) Steve Scherf et al.
# Submitted via: dBpowerAMP V4.0
# Normalized: r0:TDELIM( - );r1:TSWAP
#
DISCID=260e5a14
DTITLE=The World's Greatest Songs - Country Novelty - Disc 2
DYEAR=1996
DGENRE=Country
TTITLE0=Hank Snow - I've Been Everywhere
TTITLE1=Jim Stafford - Wildwood Weed
TTITLE2=Phil Harris And His Orchestra - That's What I Like About The South
TTITLE3=Don Charles Presents - Oh! Susanna
TTITLE4=Billy Edd Wheeler - Ode To The Little Brown Shack
TTITLE5=Homer And Jethro With June Carter - Baby, It's Cold Outside
TTITLE6=Mac Davis - It's Hard To Be Humble
TTITLE7=Guy Drake - Welfare Cadillac
TTITLE8=John D. Loudermilk - Th' Wife
TTITLE9=Jerry Reed - She Got The Goldmine (I Got the Shaft)
TTITLE10=Roger Miller - Chug A-Lug
TTITLE11=Kenny Price - The Sheriff Of Boone County
TTITLE12=Skeeter Davis And Don Bowman - For Loving You
TTITLE13=Homer And Jethro - The Battle Of Kookamonga
TTITLE14=Ray Stevens - Shriner's Convention
TTITLE15=Vernon Oxford - Redneck! (Redneck National Anthem)
TTITLE16=Ray Clark - The Lawrence Welk Hee Haw Counter Revolution Polka
TTITLE17=Jennie C. Riley - Harper Valley P.T.A.
TTITLE18=Bobby Bare - Dropkick Me, Jesus
TTITLE19=Ferlin Husky (As Simon Crum) - Country Music Is Here To Stay
EXTD=
EXTT0=
EXTT1=
EXTT2=
EXTT3=
EXTT4=
EXTT5=
EXTT6=
EXTT7=
EXTT8=
EXTT9=
EXTT10=
EXTT11=
EXTT12=
EXTT13=
EXTT14=
EXTT15=
EXTT16=
EXTT17=
EXTT18=
EXTT19=
PLAYORDER=
